<svg width="847" height="894" viewBox="0 0 847 894" fill="none" xmlns="http://www.w3.org/2000/svg">
<path d="M276.833 568.911C271.993 563.817 266.272 559.775 259.829 556.872C253.35 553.97 246.327 552.492 238.951 552.492C231.578 552.492 224.551 553.97 218.072 556.881C211.629 559.77 205.908 563.817 201.072 568.911C196.229 574.006 192.378 580.019 189.635 586.788C186.872 593.599 185.466 600.982 185.466 608.753C185.466 616.516 186.872 623.907 189.635 630.71C192.378 637.479 196.229 643.496 201.072 648.595C205.912 653.693 211.633 657.736 218.072 660.625C224.543 663.536 231.566 665.014 238.951 665.014C246.335 665.014 253.362 663.536 259.829 660.625C266.272 657.74 271.989 653.693 276.833 648.595C281.668 643.504 285.519 637.487 288.27 630.71C291.034 623.899 292.435 616.512 292.435 608.753C292.435 600.994 291.034 593.607 288.27 586.788C285.519 580.019 281.668 574.002 276.833 568.911ZM264.117 608.753C264.117 612.361 263.462 615.814 262.175 619.021C260.877 622.258 259.067 625.114 256.796 627.511C254.521 629.904 251.818 631.812 248.757 633.182C242.671 635.908 235.405 635.9 229.315 633.177C226.258 631.812 223.555 629.904 221.28 627.502C218.997 625.097 217.147 622.22 215.785 618.955C214.456 615.773 213.781 612.336 213.781 608.753C213.781 605.17 214.456 601.729 215.785 598.543C217.147 595.286 218.997 592.409 221.28 589.995C223.555 587.602 226.258 585.694 229.319 584.324C232.352 582.967 235.624 582.282 239.042 582.282C242.448 582.282 245.72 582.967 248.757 584.324C251.822 585.694 254.521 587.602 256.796 589.995C259.063 592.392 260.873 595.244 262.175 598.476C263.462 601.692 264.117 605.145 264.117 608.753Z" fill="#F66C0E"/>
<path d="M518.711 568.913C513.88 563.827 508.171 559.755 501.751 556.803C495.264 553.817 488.229 552.306 480.829 552.306C473.441 552.306 466.374 553.809 459.839 556.786C453.344 559.747 447.6 563.827 442.768 568.913C437.917 574.003 434.074 580.021 431.327 586.79C428.559 593.596 427.158 600.979 427.158 608.755V734.117H429.568C443.86 734.117 455.472 721.882 455.472 706.862V658.359C457.93 659.754 460.495 660.969 463.139 661.988C468.681 664.126 474.636 665.208 480.829 665.208C488.225 665.208 495.264 663.692 501.751 660.706C508.179 657.754 513.884 653.674 518.711 648.596C523.539 643.514 527.414 637.514 530.22 630.757C533.059 623.934 534.5 616.538 534.5 608.755C534.5 600.971 533.059 593.567 530.22 586.752C527.414 580 523.539 573.995 518.711 568.913ZM480.829 582.088C484.231 582.088 487.499 582.802 490.528 584.205C493.629 585.646 496.364 587.596 498.655 590.009C500.949 592.423 502.807 595.3 504.169 598.549C505.507 601.748 506.186 605.18 506.186 608.759C506.186 612.338 505.507 615.774 504.169 618.96C502.807 622.213 500.949 625.091 498.655 627.504C496.356 629.926 493.621 631.876 490.528 633.309C484.505 636.106 477.228 636.123 471.067 633.38C467.998 632.014 465.278 630.102 463 627.7C460.709 625.295 458.855 622.422 457.489 619.157C456.155 615.975 455.472 612.542 455.472 608.959V608.763C455.472 605.151 456.131 601.693 457.418 598.49C458.72 595.258 460.542 592.41 462.813 590.013C465.108 587.6 467.839 585.65 470.94 584.209C473.973 582.798 477.3 582.088 480.829 582.088Z" fill="#F66C0E"/>
<path d="M649.945 574.484C645.109 567.828 638.976 562.479 631.714 558.591C624.433 554.687 616.442 552.716 607.962 552.716C600.593 552.716 593.57 554.19 587.079 557.096C580.668 559.982 574.947 564.036 570.083 569.127C565.26 574.213 561.405 580.226 558.646 587.012C555.879 593.806 554.477 601.197 554.477 608.968C554.477 616.739 555.879 624.135 558.646 630.937C561.405 637.723 565.26 643.736 570.083 648.81C574.951 653.934 580.668 657.976 587.079 660.849C593.554 663.759 600.577 665.229 607.962 665.229C610.761 665.229 613.551 665 616.235 664.57C621.678 663.697 626.891 661.943 631.714 659.35C638.964 655.466 645.09 650.192 649.941 643.682C651.596 641.419 653.129 639.059 654.487 636.667C654.903 635.927 655.285 635.155 655.646 634.353L656.233 633.046L655.205 632.073C650.453 627.597 644.327 625.141 637.943 625.141C632.512 625.141 627.312 626.887 622.901 630.198C622.69 630.353 622.488 630.507 622.341 630.628C621.083 631.593 619.673 632.453 618.161 633.176C615.036 634.691 611.602 635.456 607.958 635.456C604.932 635.456 602.05 634.934 599.374 633.898C596.659 632.862 594.178 631.397 592.006 629.547C589.819 627.672 587.949 625.429 586.46 622.865C585.999 622.08 585.575 621.283 585.201 620.46H660.116L660.827 616.493C661.24 614.113 661.45 611.578 661.45 608.977C661.45 603.886 660.835 598.996 659.624 594.445C657.615 586.811 654.344 580.08 649.945 574.484ZM588.429 595.038C588.854 593.509 589.445 591.931 590.553 590.298C591.815 588.423 593.399 587.241 594.301 586.615C598.271 583.88 602.872 582.502 607.958 582.502C611.888 582.502 615.556 583.512 619.117 584.995C622.174 586.264 627.002 589.855 627.887 595.038H588.429V595.038Z" fill="#F66C0E"/>
<path d="M163.893 636.369L161.84 634.682C157.307 630.962 151.891 628.891 146.46 628.865C142.228 628.865 138.179 629.918 134.463 631.964C134.205 632.102 133.931 632.256 133.748 632.373C130.386 634.202 126.618 635.133 122.553 635.133C119.123 635.133 115.855 634.428 112.842 633.041C109.718 631.588 106.982 629.646 104.703 627.275C102.429 624.882 100.618 622.046 99.3241 618.856C98.0616 615.732 97.4105 612.354 97.3906 608.851C97.4145 605.318 98.0656 601.965 99.3241 598.858C100.618 595.663 102.429 592.836 104.7 590.444C106.982 588.059 109.718 586.117 112.834 584.673C115.855 583.286 119.123 582.58 122.549 582.58C126.614 582.58 130.382 583.508 133.661 585.291C133.923 585.445 134.201 585.604 134.423 585.725C138.175 587.796 142.224 588.848 146.591 588.848C151.887 588.815 157.299 586.752 161.836 583.031L163.893 581.34C165.024 580.397 165.671 579.002 165.671 577.515C165.671 576.442 165.322 575.381 164.691 574.534C159.859 567.961 153.734 562.641 146.492 558.736C139.441 554.916 131.648 552.911 123.307 552.79H122.549C115.284 552.79 108.32 554.268 101.857 557.175C95.4294 560.043 89.6967 564.077 84.8056 569.189C79.9304 574.271 76.0517 580.284 73.2687 587.061C70.5214 593.755 69.1081 601.05 69.0684 608.742V608.943L69.0723 610.893H69.112C69.3582 617.883 70.7556 624.518 73.2726 630.64C76.0517 637.413 79.9344 643.431 84.8096 648.521C89.7007 653.62 95.4334 657.662 101.857 660.527C108.32 663.429 115.284 664.907 122.553 664.907H123.335C131.648 664.794 139.441 662.794 146.492 658.977C153.737 655.061 159.863 649.745 164.691 643.172C165.322 642.316 165.671 641.259 165.671 640.195C165.671 638.7 165.024 637.305 163.893 636.369Z" fill="#F66C0E"/>
<path d="M776.268 636.374L774.212 634.687C769.674 630.966 764.263 628.895 758.836 628.87C754.604 628.87 750.55 629.922 746.827 631.976C746.573 632.114 746.291 632.269 746.12 632.377C742.757 634.206 738.99 635.138 734.924 635.138C731.498 635.138 728.227 634.432 725.218 633.045C722.093 631.592 719.354 629.651 717.079 627.279C714.804 624.886 712.994 622.05 711.7 618.86C710.437 615.737 709.786 612.358 709.766 608.855C709.794 605.322 710.441 601.969 711.7 598.862C712.99 595.668 714.8 592.84 717.075 590.444C719.358 588.063 722.097 586.122 725.214 584.677C728.239 583.286 731.506 582.58 734.928 582.58C738.99 582.58 742.761 583.512 746.037 585.286C746.295 585.449 746.58 585.608 746.799 585.725C750.546 587.796 754.604 588.848 758.963 588.848C764.263 588.815 769.678 586.752 774.216 583.023L776.272 581.34C777.4 580.405 778.047 579.01 778.047 577.515C778.047 576.442 777.698 575.381 777.066 574.534C772.235 567.957 766.109 562.637 758.872 558.736C751.825 554.916 744.032 552.911 735.683 552.79H734.928C727.663 552.79 720.7 554.268 714.237 557.17C707.809 560.043 702.076 564.077 697.181 569.184C692.306 574.271 688.427 580.284 685.648 587.061C682.901 593.755 681.488 601.046 681.444 608.742V608.943L681.452 610.893H681.492C681.742 617.883 683.131 624.518 685.648 630.64C688.427 637.409 692.31 643.422 697.185 648.521C702.076 653.62 707.817 657.662 714.233 660.527C720.7 663.429 727.663 664.907 734.928 664.907H735.71C744.028 664.794 751.821 662.794 758.868 658.977C766.113 655.06 772.239 649.745 777.062 643.172C777.698 642.324 778.047 641.259 778.047 640.19C778.043 638.704 777.396 637.309 776.268 636.374Z" fill="#F66C0E"/>
<path d="M385.866 560.147C381.586 557.145 376.766 554.903 371.534 553.462C367.734 552.422 363.784 551.896 359.798 551.896H359.62C355.622 551.896 351.672 552.422 347.872 553.462C342.64 554.903 337.82 557.145 333.52 560.156C327.069 564.733 321.892 570.7 318.125 577.911C314.337 585.161 312.42 593.187 312.42 601.76V665.22H340.734V601.76C340.734 599.066 341.234 596.473 342.219 594.034C343.219 591.579 344.605 589.412 346.34 587.599C348.091 585.77 350.143 584.305 352.442 583.261C356.852 581.248 362.549 581.248 366.964 583.261C369.263 584.305 371.315 585.77 373.066 587.591C374.801 589.412 376.187 591.579 377.183 594.034C378.176 596.473 378.672 599.066 378.672 601.76V665.22H406.99V601.76C406.99 593.187 405.069 585.161 401.285 577.911C397.518 570.7 392.337 564.728 385.866 560.147Z" fill="#F66C0E"/>
<path d="M648.871 275.642L609.304 236.442C609.297 236.435 609.29 236.429 609.283 236.429L609.304 236.442C594.721 222.006 571.098 222.02 556.536 236.442L530.151 262.577L563.125 295.241C574.053 306.067 574.053 323.616 563.125 334.435L543.328 354.048C529.835 367.389 521.471 385.894 521.487 406.34C521.487 426.092 529.307 444.042 542.079 457.279L543.344 458.527L648.871 354.042C670.731 332.39 670.731 297.293 648.871 275.642Z" fill="url(#paint0_linear_348_35)"/>
<path d="M609.307 236.442L609.286 236.429L556.541 184.179C541.963 169.742 518.333 169.756 503.773 184.179L292.722 393.24C290.909 395.042 288.955 396.567 286.896 397.953C272.412 407.448 252.717 405.854 239.953 393.24L292.718 445.497C307.295 459.913 330.905 459.913 345.483 445.497L556.541 236.449C571.102 222.02 594.725 222.006 609.307 236.442Z" fill="#F66C0E"/>
<path d="M319.1 367.113L286.126 334.435C275.195 323.616 275.195 306.068 286.126 295.242L305.912 275.643C335.05 246.783 335.05 199.974 305.912 171.115L200.379 275.643C178.527 297.294 178.527 332.384 200.379 354.042L239.955 393.241C252.715 405.855 272.413 407.449 286.898 397.954C288.956 396.568 290.906 395.043 292.72 393.241L319.1 367.113Z" fill="url(#paint1_linear_348_35)"/>
<defs>
<linearGradient id="paint0_linear_348_35" x1="622.724" y1="410.387" x2="527.237" y2="253.048" gradientUnits="userSpaceOnUse">
<stop offset="0.8" stop-color="#F66C0E"/>
<stop offset="1" stop-color="#D95B08"/>
</linearGradient>
<linearGradient id="paint1_linear_348_35" x1="182.499" y1="231.869" x2="311.236" y2="377.833" gradientUnits="userSpaceOnUse">
<stop offset="0.8" stop-color="#F66C0E"/>
<stop offset="1" stop-color="#D95B08"/>
</linearGradient>
</defs>
</svg>
