<svg width="1024" height="1024" viewBox="0 0 1024 1024" fill="none" xmlns="http://www.w3.org/2000/svg">
<g clip-path="url(#clip0_196_890)">
<path d="M922.31 441.551L851.163 371.065C851.15 371.053 851.138 371.041 851.125 371.041L851.163 371.065C824.941 345.107 782.464 345.132 756.28 371.065L708.837 418.059L768.128 476.793C787.778 496.259 787.778 527.814 768.128 547.267L732.531 582.533C708.269 606.523 693.229 639.797 693.258 676.56C693.258 712.078 707.319 744.353 730.284 768.156L732.559 770.4L922.31 582.523C961.617 543.591 961.617 480.483 922.31 441.551Z" fill="#F66C0E"/>
<path d="M851.169 371.065L851.131 371.041L756.289 277.089C730.076 251.131 687.586 251.156 661.406 277.089L281.912 653.006C278.652 656.246 275.138 658.989 271.436 661.481C245.392 678.553 209.979 675.687 187.028 653.006L281.905 746.97C308.116 772.891 350.57 772.891 376.783 746.97L756.289 371.078C782.471 345.132 824.948 345.107 851.169 371.065Z" fill="#F66C0E"/>
<path d="M329.343 606.027L270.052 547.268C250.396 527.814 250.396 496.261 270.052 476.795L305.629 441.552C358.023 389.66 358.023 305.492 305.629 253.6L115.869 441.552C76.5765 480.484 76.5765 543.58 115.869 582.523L187.032 653.008C209.975 675.689 245.395 678.555 271.441 661.483C275.141 658.99 278.647 656.248 281.909 653.008L329.343 606.027Z" fill="#F66C0E"/>
</g>
<defs>
<clipPath id="clip0_196_890">
<rect width="1024" height="1024" fill="white"/>
</clipPath>
</defs>
</svg>
