<svg width="19" height="19" viewBox="0 0 19 19" fill="none" xmlns="http://www.w3.org/2000/svg">
<path d="M10.2917 2.375C10.4934 2.37522 10.6875 2.45249 10.8343 2.591C10.981 2.72952 11.0693 2.91884 11.0811 3.12027C11.0929 3.3217 11.0274 3.52005 10.8979 3.67478C10.7684 3.82952 10.5847 3.92896 10.3843 3.95279L10.2917 3.95833H3.95833V15.0417H15.0417V8.70833C15.0419 8.50655 15.1192 8.31247 15.2577 8.16575C15.3962 8.01903 15.5855 7.93073 15.7869 7.91891C15.9884 7.90708 16.1867 7.97262 16.3415 8.10213C16.4962 8.23164 16.5956 8.41534 16.6195 8.61571L16.625 8.70833V15.0417C16.6251 15.4411 16.4743 15.8259 16.2026 16.1188C15.931 16.4117 15.5587 16.5911 15.1604 16.621L15.0417 16.625H3.95833C3.55888 16.6251 3.17413 16.4743 2.88123 16.2026C2.58833 15.931 2.40892 15.5587 2.37896 15.1604L2.375 15.0417V3.95833C2.37487 3.55888 2.52574 3.17413 2.79735 2.88123C3.06897 2.58833 3.44125 2.40892 3.83958 2.37896L3.95833 2.375H10.2917ZM15.234 2.64654C15.3765 2.50456 15.5677 2.42213 15.7687 2.41599C15.9698 2.40985 16.1656 2.48046 16.3165 2.61349C16.4673 2.74652 16.5619 2.93198 16.581 3.13221C16.6001 3.33244 16.5422 3.53242 16.4192 3.69154L16.3535 3.76675L8.51596 11.6035C8.37349 11.7454 8.18232 11.8279 7.98128 11.834C7.78024 11.8402 7.58439 11.7695 7.43353 11.6365C7.28267 11.5035 7.18809 11.318 7.16902 11.1178C7.14994 10.9176 7.2078 10.7176 7.33083 10.5585L7.39654 10.484L15.234 2.64654Z" fill="#FF9633"/>
</svg>
