<svg width="67" height="63" viewBox="0 0 67 63" fill="none" xmlns="http://www.w3.org/2000/svg">
<path d="M53.0413 27.5626H28.4942L35.3031 21.1602C36.0886 20.4219 36.5301 19.4204 36.5304 18.376C36.5306 17.3316 36.0897 16.3299 35.3045 15.5913C34.5193 14.8526 33.4542 14.4375 32.3435 14.4373C31.2328 14.437 30.1675 14.8517 29.382 15.59L19.371 25.0032C17.5419 26.7279 16.5146 29.0643 16.5146 31.5001C16.5146 33.9359 17.5419 36.2722 19.371 37.997L29.382 47.4102C30.1675 48.1485 31.2328 48.5632 32.3435 48.5629C33.4542 48.5627 34.5193 48.1476 35.3045 47.4089C36.0897 46.6702 36.5306 45.6685 36.5304 44.6242C36.5301 43.5798 36.0886 42.5783 35.3031 41.84L28.4942 35.4376H53.0413C54.1519 35.4376 55.217 35.0227 56.0023 34.2843C56.7877 33.5459 57.2288 32.5444 57.2288 31.5001C57.2288 30.4558 56.7877 29.4543 56.0023 28.7159C55.217 27.9774 54.1519 27.5626 53.0413 27.5626Z" fill="#EF2A39"/>
</svg>
